<mxfile host="app.diagrams.net" agent="Mozilla/5.0 (X11; Ubuntu; Linux x86_64; rv:136.0) Gecko/20100101 Firefox/136.0" version="26.1.0">
  <diagram name="Page-1" id="-QVFMGTDc9cBr8HRbE0y">
    <mxGraphModel dx="848" dy="1151" grid="1" gridSize="10" guides="1" tooltips="1" connect="1" arrows="1" fold="1" page="1" pageScale="1" pageWidth="1400" pageHeight="850" math="0" shadow="0">
      <root>
        <mxCell id="0" />
        <mxCell id="1" parent="0" />
        <mxCell id="EqWcXSMIhwUvajd12HQl-1" value="&lt;b&gt;&lt;font style=&quot;font-size: 20px;&quot;&gt;Partitions - Right Sizing - Shuffle - Master Equation&lt;/font&gt;&lt;/b&gt;" style="text;html=1;align=left;verticalAlign=middle;whiteSpace=wrap;rounded=0;" parent="1" vertex="1">
          <mxGeometry x="40" y="40" width="1140" height="30" as="geometry" />
        </mxCell>
        <mxCell id="EqWcXSMIhwUvajd12HQl-2" value="&lt;div&gt;&lt;font style=&quot;font-size: 14px;&quot;&gt;&lt;span style=&quot;color: rgb(234, 107, 102);&quot;&gt;Default partition count: 200 Shuffle Partitions (functionally incorrect in most cases)&lt;/span&gt;&lt;/font&gt;&lt;/div&gt;&lt;div&gt;&lt;font style=&quot;font-size: 14px;&quot;&gt;&lt;br&gt;&lt;/font&gt;&lt;/div&gt;&lt;div&gt;&lt;font style=&quot;font-size: 14px;&quot;&gt;Target Size: (should be) &amp;lt; 200 MB / partition (100MB &amp;lt;-&amp;gt; 200MB)&lt;/font&gt;&lt;/div&gt;&lt;div&gt;&lt;font style=&quot;font-size: 14px;&quot;&gt;&lt;br&gt;&lt;/font&gt;&lt;/div&gt;&lt;div&gt;&lt;font style=&quot;font-size: 14px;&quot;&gt;&lt;b&gt;&lt;span style=&quot;color: rgb(0, 76, 153);&quot;&gt;Partition Count = Stage Input Data / Target Size&lt;/span&gt;&lt;/b&gt;&lt;/font&gt;&lt;/div&gt;&lt;div&gt;&lt;font style=&quot;font-size: 14px;&quot;&gt;&lt;span style=&quot;color: rgb(0, 76, 153);&quot;&gt;&lt;b&gt;&lt;br&gt;&lt;/b&gt;&lt;/span&gt;&lt;/font&gt;&lt;/div&gt;&lt;div&gt;&lt;font style=&quot;font-size: 14px;&quot;&gt;&lt;span style=&quot;color: rgb(0, 0, 0);&quot;&gt;Example: &lt;br&gt;&lt;/span&gt;&lt;/font&gt;&lt;/div&gt;&lt;div&gt;&lt;font style=&quot;font-size: 14px;&quot;&gt;&lt;span style=&quot;color: rgb(0, 0, 0);&quot;&gt;Shuffle Stage Input = 210 GB (210 x 1,000 MB)&lt;/span&gt;&lt;/font&gt;&lt;/div&gt;&lt;div&gt;&lt;font style=&quot;font-size: 14px;&quot;&gt;Partition Count = 210000MB / 200MB = 1050&lt;/font&gt;&lt;/div&gt;&lt;div&gt;&lt;font style=&quot;font-size: 14px;&quot;&gt;&lt;b&gt;&lt;font face=&quot;Courier New&quot;&gt;spark.conf.set(&quot;spark.sql.shuffle.partitions&quot;, 1050)&lt;/font&gt;&lt;/b&gt;&lt;/font&gt;&lt;/div&gt;&lt;div&gt;&lt;font style=&quot;font-size: 14px;&quot;&gt;&lt;br&gt;&lt;/font&gt;&lt;/div&gt;&lt;div&gt;&lt;font style=&quot;font-size: 14px;&quot;&gt;BUT if cluster has 2000 cores (Use all cores as long as each holds more than 100MB)&lt;/font&gt;&lt;/div&gt;&lt;div&gt;&lt;font style=&quot;font-size: 14px;&quot;&gt;&lt;b&gt;&lt;font face=&quot;Courier New&quot;&gt;spark.conf.set(&quot;spark.sql.shuffle.partitions&quot;, 2000)&lt;/font&gt;&lt;/b&gt;&lt;/font&gt;&lt;/div&gt;&lt;div&gt;&lt;br&gt;&lt;/div&gt;" style="text;html=1;align=left;verticalAlign=middle;whiteSpace=wrap;rounded=0;" parent="1" vertex="1">
          <mxGeometry x="40" y="110" width="620" height="260" as="geometry" />
        </mxCell>
        <mxCell id="EqWcXSMIhwUvajd12HQl-3" value="&lt;div&gt;&lt;b&gt;IMPORTANT: &lt;/b&gt;Shuffle Read size in Stage &lt;i&gt;&lt;b&gt;&lt;span style=&quot;color: rgb(51, 51, 255);&quot;&gt;n&lt;/span&gt;&lt;/b&gt;&lt;/i&gt; is equal to&amp;nbsp;&lt;/div&gt;&lt;div&gt;total shuffle write(s) size from previous stages &lt;b&gt;&lt;i&gt;&lt;span style=&quot;color: rgb(51, 51, 255);&quot;&gt;n-1, n-2, n-3 &lt;/span&gt;&lt;/i&gt;&lt;span style=&quot;color: rgb(51, 51, 255);&quot;&gt;&lt;/span&gt;&lt;/b&gt;etc.&lt;/div&gt;" style="text;html=1;align=left;verticalAlign=middle;resizable=0;points=[];autosize=1;strokeColor=none;fillColor=none;" parent="1" vertex="1">
          <mxGeometry x="40" y="405" width="360" height="40" as="geometry" />
        </mxCell>
        <mxCell id="EqWcXSMIhwUvajd12HQl-4" value="&lt;div&gt;&lt;b style=&quot;background-color: rgb(103, 171, 159);&quot;&gt;&lt;span style=&quot;color: rgb(255, 255, 255);&quot;&gt;Example:&amp;nbsp;&amp;nbsp;&amp;nbsp; &amp;nbsp; &amp;nbsp;&amp;nbsp;&amp;nbsp;&amp;nbsp;&amp;nbsp;&amp;nbsp;&amp;nbsp;&amp;nbsp;&amp;nbsp;&amp;nbsp;&amp;nbsp;&amp;nbsp;&amp;nbsp;&amp;nbsp;&amp;nbsp;&amp;nbsp;&amp;nbsp;&amp;nbsp;&amp;nbsp;&amp;nbsp;&amp;nbsp;&amp;nbsp;&amp;nbsp;&amp;nbsp;&amp;nbsp;&amp;nbsp;&amp;nbsp;&amp;nbsp;&amp;nbsp;&amp;nbsp;&amp;nbsp;&amp;nbsp;&amp;nbsp;&amp;nbsp;&amp;nbsp;&amp;nbsp;&amp;nbsp;&amp;nbsp;&amp;nbsp;&amp;nbsp;&amp;nbsp;&amp;nbsp;&amp;nbsp;&amp;nbsp;&amp;nbsp;&amp;nbsp;&amp;nbsp;&amp;nbsp;&amp;nbsp;&amp;nbsp;&amp;nbsp;&amp;nbsp;&amp;nbsp;&amp;nbsp;&amp;nbsp;&amp;nbsp;&amp;nbsp;&amp;nbsp;&amp;nbsp;&amp;nbsp;&amp;nbsp;&amp;nbsp;&amp;nbsp;&amp;nbsp;&amp;nbsp;&amp;nbsp;&amp;nbsp;&amp;nbsp;&amp;nbsp;&amp;nbsp;&amp;nbsp;&amp;nbsp;&amp;nbsp;&amp;nbsp;&amp;nbsp;&amp;nbsp;&amp;nbsp;&amp;nbsp;&amp;nbsp;&amp;nbsp;&amp;nbsp;&amp;nbsp;&amp;nbsp;&amp;nbsp;&amp;nbsp;&amp;nbsp;&amp;nbsp;&amp;nbsp;&amp;nbsp;&amp;nbsp;&amp;nbsp;&amp;nbsp;&amp;nbsp;&amp;nbsp;&amp;nbsp;&amp;nbsp;&amp;nbsp; &lt;br&gt;&lt;/span&gt;&lt;/b&gt;&lt;/div&gt;&lt;div&gt;&lt;br&gt;&lt;/div&gt;&lt;div&gt;Cluster Spec:&lt;/div&gt;&lt;div&gt;&lt;br&gt;&lt;/div&gt;&lt;div&gt;&lt;b&gt;96 Cores&lt;/b&gt; @ 7.625g/core (3.8125g working mem + 3.8125g storage mem)&lt;/div&gt;&lt;div&gt;&lt;br&gt;&lt;/div&gt;&lt;div&gt;&lt;br&gt;&lt;/div&gt;&lt;div&gt;Shuffle Read: 54 GB&lt;/div&gt;&lt;div&gt;&lt;br&gt;&lt;/div&gt;&lt;div&gt;Target shuffle part size = 100m&lt;/div&gt;&lt;div&gt;&lt;br&gt;&lt;/div&gt;&lt;div&gt;p = 54g / 100m = 540&lt;/div&gt;&lt;div&gt;540 / 96 cores = 5.625&lt;/div&gt;&lt;div&gt;96 * 5 = 480&lt;/div&gt;&lt;div&gt;&lt;br&gt;&lt;/div&gt;&lt;div&gt;if p = 540 another 60p have to be loaded and processed after&lt;/div&gt;&lt;div&gt;first cycle is complete.&lt;/div&gt;&lt;div&gt;&lt;br&gt;&lt;/div&gt;" style="text;html=1;align=left;verticalAlign=middle;resizable=0;points=[];autosize=1;strokeColor=none;fillColor=none;" parent="1" vertex="1">
          <mxGeometry x="40" y="460" width="420" height="270" as="geometry" />
        </mxCell>
        <mxCell id="EqWcXSMIhwUvajd12HQl-5" value="https://www.youtube.com/watch?v=daXEp4HmS-E&amp;amp;t=462s" style="text;html=1;align=center;verticalAlign=middle;whiteSpace=wrap;rounded=0;" parent="1" vertex="1">
          <mxGeometry x="1060" y="810" width="330" height="30" as="geometry" />
        </mxCell>
        <mxCell id="T2o6HPqGE6CjJCU_6FG9-1" value="&lt;b&gt;&lt;font style=&quot;font-size: 16px; color: rgb(0, 0, 255);&quot;&gt;Avoid The Spill&lt;/font&gt;&lt;/b&gt;&lt;div&gt;&lt;b style=&quot;color: rgb(0, 204, 0);&quot;&gt;&lt;font style=&quot;font-size: 16px;&quot;&gt;Maximize Parallelism&lt;/font&gt;&lt;/b&gt;&lt;/div&gt;&lt;div&gt;&lt;font style=&quot;font-size: 14px;&quot;&gt;Utilize All Cores&lt;/font&gt;&lt;br&gt;&lt;font style=&quot;font-size: 14px;&quot;&gt;Provision only the cores you need&lt;/font&gt;&lt;/div&gt;" style="text;html=1;align=center;verticalAlign=middle;whiteSpace=wrap;rounded=0;strokeColor=default;strokeWidth=2;" vertex="1" parent="1">
          <mxGeometry x="320" y="740" width="320" height="100" as="geometry" />
        </mxCell>
      </root>
    </mxGraphModel>
  </diagram>
</mxfile>
